<svg xmlns="http://www.w3.org/2000/svg" width="70" height="67" viewBox="0 0 70 67"
    stroke-width=".954752" fill="#000">
    <path
        d="M8.665 66.707c-.198-.32-.063-.445 3.307-3.096 3.274-2.577 6.191-5.221 6.191-5.613 0-.436-1.723-.458-3.937-.05-1.308.241-1.67.231-2.015-.054-.478-.397-1.626-2.785-1.626-3.381 0-.217-.086-.395-.191-.395-.105 0-.319-.37-.475-.821-.156-.452-.818-2.299-1.47-4.105-1.928-5.33-4.444-14.595-5.317-19.577-.207-1.18-.482-2.658-.61-3.284C1.668 22.167-.32 3.807.044 3.444c.151-.151 11.304-.845 25.95-1.613L43.047.938c6.53-.341 12.856-.692 14.056-.78L59.285 0l.147 1.23c.081.677.215 2.367.297 3.757.178 2.993 1.017 11.236 1.364 13.387 1.148 7.133 1.638 9.441 2.689 12.682 1.378 4.25 3.214 7.186 5.499 8.79l.719.505-.544 1.614c-1.05 3.11-2.243 5.098-4.276 7.12-1.17 1.166-2.468 2.178-3.313 2.586-2.62 1.264-9 2.505-19.819 3.854l-5.292.66-1.528 1.313c-5.745 4.937-11.899 8.036-18.059 9.094-2.817.484-8.231.557-8.504.115zm13.047-4.987c3.958-1.97 5.63-3.155 8.994-6.375 1.575-1.509 2.978-2.743 3.118-2.743.497 0 .244-.429-.435-.738-1.086-.495-.33-.691 3.342-.87 8.475-.411 17.61-1.666 21.504-2.953 2.69-.889 6.41-3.491 6.41-4.484 0-.195-.264-.563-.587-.817-1.377-1.083-3.09-5.474-4.614-11.822-2.07-8.633-3.388-16.837-3.813-23.756l-.16-2.624-2.929.174-6.801.407C25.93 6.307 21.75 6.55 15.637 6.874a2158 2158 0 0 0-8.21.45l-3.284.189-.083 1.641c-.306 6.06 2.465 22.876 5.266 31.955 1.606 5.203 4.216 11.3 5.023 11.732.25.134 1.246.13 2.434-.01 2.55-.298 10.246-.688 10.663-.54.45.16.175.481-.575.67-1.63.409-3.403 1.222-3.403 1.56 0 .628-1.75 3.947-2.845 5.398a31.872 31.872 0 0 1-2.118 2.488c-1.013 1.042-1.036 1.096-.393.935.376-.094 1.996-.824 3.6-1.622zm.746-2.28c0-.149.105-.27.232-.27.128 0 .308-.341.4-.758.091-.417.27-.758.395-.758.127 0 .302-.452.39-1.005.09-.554.31-1.129.49-1.278.418-.348 4.466-1.785 4.613-1.638.157.157-3.196 3.364-4.999 4.78-.836.658-1.521 1.074-1.521.926zm-8.02-9.1c-.174-.28-.317-.653-.318-.829-.001-.175-.167-.636-.37-1.024-.202-.388-.442-1.1-.532-1.582-.09-.482-.265-.938-.388-1.015-.124-.076-.225-.33-.226-.565 0-.235-.16-.732-.355-1.105a7.207 7.207 0 0 1-.533-1.516c-.098-.46-.267-.951-.374-1.09-.107-.139-.274-.735-.372-1.325-.097-.59-.27-1.13-.384-1.2-.113-.07-.285-.696-.38-1.39-.096-.695-.265-1.32-.377-1.388-.112-.07-.283-.923-.381-1.896-.098-.974-.266-1.825-.375-1.892-.108-.067-.277-1.089-.375-2.272-.099-1.182-.27-2.206-.382-2.275-.112-.069-.285-1.15-.384-2.402-.099-1.253-.268-2.332-.375-2.398-.108-.066-.278-1.23-.378-2.587-.1-1.357-.27-2.58-.376-2.72-.106-.139-.265-1.162-.352-2.273l-.159-2.021.722 1.407c.398.774 1.413 3.275 2.257 5.557.844 2.283 2.127 5.742 2.85 7.687a716.807 716.807 0 0 1 1.672 4.527c.195.544.823 1.965 1.395 3.157 1.882 3.927 3.594 5.681 7.144 7.321.972.45 1.953.915 2.179 1.035.226.12.851.298 1.39.395.537.097 1.091.262 1.23.367.14.106.765.274 1.39.375.625.1 1.252.276 1.393.389.14.113 1.05.333 2.02.49l4.165.667c1.32.21 3.935.496 5.81.635 1.876.138 3.695.317 4.043.398l.631.146-.631.191c-.348.105-1.18.202-1.849.216-.669.014-1.437.144-1.708.289-.278.149-3.804.365-8.13.498-8.337.257-13.713.61-15.091.992-.486.135-1.68.31-2.653.39-1.588.13-1.8.094-2.084-.364zm11.81-7.104c-2.229-1.006-3.722-2.927-4.264-5.487-.338-1.592-.35-2.083-.06-2.54.181-.284.32-.276.818.05 1.002.657 4.026 1.707 6.019 2.09 1.035.198 3.966.433 6.515.522 2.548.088 4.689.252 4.758.363.208.337-2.664 2.434-4.945 3.611-3.832 1.978-6.585 2.41-8.842 1.392zm9.548-3.062c.758-.758.341-.93-1.907-.784-2.761.178-6.127-.257-8.44-1.091-.975-.352-1.83-.582-1.901-.511-.247.246.81 1.412 1.65 1.82 1.08.525 3.415.794 7.251.836 2.071.023 3.141-.064 3.347-.27zm-9.263-10.448c-1.49-1.894-1.443-9.64.07-11.399.968-1.126 1.713-.327 2.3 2.467a15.77 15.77 0 0 1-.002 6.647c-.599 2.826-1.363 3.563-2.368 2.285zm14.909.313c-1.153-1.39-1.43-8.82-.407-10.907 1.363-2.778 2.708-.24 2.672 5.042-.031 4.504-1.1 7.27-2.265 5.865z"
    />
</svg>