<svg xmlns="http://www.w3.org/2000/svg" width="240" height="20" viewBox="0 0 240 20"
    stroke-width=".954752" fill="#000">
    <path
        d="M123.201 18.895c-1.554-.584-2.896-1.133-2.982-1.22-.086-.086 1.265-3.987 3.003-8.668l3.16-8.511 3.035-.004 3.036-.004.99 3.458c.544 1.903 1.87 5.741 2.944 8.53 1.075 2.79 1.895 5.119 1.824 5.175-.232.18-5.796 2.351-6.02 2.349-.12-.001-.648-.96-1.173-2.13-.84-1.873-1.074-2.129-1.955-2.129-.898 0-1.082.218-1.796 2.129-.437 1.17-.895 2.119-1.018 2.108-.122-.011-1.494-.499-3.048-1.083zm3.003-3.33.59-1.774 2.198-.106 2.199-.106.87 1.968c.478 1.083.98 1.969 1.115 1.969.858 0 2.598-.942 2.588-1.402-.006-.302-1.086-3.423-2.398-6.935l-2.387-6.385H127.472l-2.546 6.917-2.546 6.918.937.434c1.631.756 2.243.438 2.887-1.499zm1.772-5.952c0-.444.265-1.186.588-1.648.561-.801.61-.81 1.064-.188.261.358.475 1.1.475 1.647 0 .871-.134.997-1.063.997-.87 0-1.064-.147-1.064-.808zm38.578 9.382c-1.498-.52-2.815-1.041-2.926-1.156-.112-.114 1.205-4.025 2.926-8.69l3.13-8.483 2.987-.1 2.986-.1 2.808 8.26c1.545 4.541 2.861 8.417 2.927 8.612.11.33-5.83 2.892-6.054 2.611-.056-.07-.475-1.046-.931-2.167-.767-1.885-.916-2.04-1.962-2.04-1.06 0-1.184.137-1.928 2.128-.437 1.17-.896 2.116-1.018 2.1-.123-.014-1.448-.453-2.945-.975zm2.9-3.43.59-1.774 2.039-.107c2.365-.125 2.756.113 3.401 2.07.262.794.61 1.526.775 1.627.518.321 2.766-.607 2.766-1.142 0-.281-1.073-3.469-2.384-7.083l-2.383-6.57-1.765.104-1.764.104-2.523 6.917-2.523 6.918.91.434c1.595.76 2.218.435 2.86-1.499zm1.772-5.877c0-.992.631-2.105 1.194-2.105.478 0 1.358 2.295 1.012 2.64-.108.11-.65.198-1.202.198-.778 0-1.004-.165-1.004-.733zM22.048 18.841c-1.661-.532-3.746-3.056-4.496-5.443-.74-2.355-.586-5.853.364-8.23C18.638 3.365 21.222.988 23 .494c4.494-1.249 8.4.515 10.589 4.783 2.665 5.194.367 12.306-4.405 13.632-1.687.469-5.576.432-7.135-.068zm7.37-2.317c.678-.333 1.711-1.292 2.295-2.131.949-1.364 1.06-1.799 1.037-4.08-.068-6.993-6.286-10.68-11.012-6.529-3.358 2.95-3.549 8.979-.376 11.895 1.95 1.794 5.385 2.154 8.055.845zm-4.947-2.3c-1.28-.648-2.492-2.642-2.492-4.098 0-1.616 1.2-4.093 2.22-4.581 1.534-.736 1.97-.743 3.363-.053 1.675.829 2.216 1.869 2.216 4.254 0 2.16-.73 3.677-2.115 4.394-1.257.65-2.033.67-3.192.084zm2.755-2.455c.628-.629.524-3.134-.161-3.892-1.11-1.227-3.055-.559-3.497 1.202-.23.918.29 2.346 1.035 2.844.609.407 2.153.316 2.623-.154zm38.357 6.955c-3.154-1.365-5.004-4.77-5.022-9.24-.009-2.225.143-2.841 1.177-4.79C63.218 1.906 65.06.522 67.75.18c3.068-.39 5.177.188 6.873 1.886 2.44 2.44 3.191 4.41 3.19 8.355 0 2.917-.115 3.572-.86 4.873-.95 1.66-2.811 3.117-4.662 3.649-1.78.51-5.287.396-6.708-.219zm7.303-2.302c4.186-1.993 4.45-9.535.453-12.9-4.179-3.52-10.223-.367-10.844 5.654-.393 3.817 1.505 6.95 4.756 7.845 1.975.545 3.598.372 5.635-.599zm-5.419-2.418c-1.493-.935-1.884-1.75-1.884-3.932 0-3.097 1.483-4.972 3.931-4.972 2.554 0 4.17 2.422 3.702 5.547-.477 3.189-3.345 4.863-5.749 3.357zm3.237-2.598c1.787-2.553-1.062-5.667-2.968-3.243-1.35 1.718-.552 4.032 1.393 4.032.655 0 1.221-.284 1.575-.789zm30.235 7.623-2.753-.125.095-9.296.094-9.297L100.9.208l2.524-.104 1.147 1.789c.63.983 1.33 1.788 1.553 1.787.223 0 .86-.718 1.413-1.596 1-1.583 1.023-1.596 3.014-1.6 1.103-.002 2.629-.107 3.39-.233l1.386-.229-.253 9.536c-.14 5.244-.285 9.548-.322 9.563-.038.016-1.544-.036-3.348-.114l-3.279-.143v-4.541h-3.159l-.104 2.39c-.08 1.83-.23 2.397-.636 2.416-.293.013-1.771-.032-3.286-.1zm1.945-6.036.1-4.168 1.026 1.513c.586.865 1.415 1.612 1.933 1.742.767.192 1.134-.03 2.361-1.425.8-.91 1.585-1.653 1.746-1.653.16 0 .18 1.733.043 3.851l-.25 3.852 1.348.218c.757.123 1.507.06 1.71-.144.214-.212.414-3.158.486-7.132.136-7.499.174-7.37-2.168-7.38-1.194-.005-1.46.172-2.482 1.65-.63.911-1.482 2.06-1.894 2.552l-.75.896-1.707-2.57c-1.637-2.463-1.759-2.564-2.973-2.462l-1.265.106-.096 7.158-.096 7.158.805.155c2.115.406 2.015.591 2.123-3.917zm43.704 5.941-3.545-.177-.095-9.084-.094-9.085 1.867-.224c3.573-.43 4.004-.341 4.923 1.009 1.035 1.52 1.375 1.564 1.375.18V.487h6.664l.205 4.346c.113 2.39.268 6.54.345 9.223l.14 4.877h-5.52l-1.084-1.474c-1.132-1.54-1.337-1.462-1.534.588l-.102 1.064zm8.995-1.995 1.108-.222-.037-3.946c-.021-2.17-.14-5.383-.266-7.14l-.229-3.192-1.506-.109c-1.73-.125-1.628-.391-1.514 3.965.058 2.232-.036 3.106-.323 3.01-.223-.074-1.409-1.729-2.635-3.678l-2.229-3.542-1.391.112c-.765.061-1.471.221-1.568.354-.098.134-.131 3.396-.075 7.25l.104 7.005h3.492l.1-3.813.1-3.814 2.633 3.991c1.448 2.195 2.745 3.99 2.88 3.99.137 0 .747-.099 1.356-.22zm78.036 1.286c-.904-1.27-1.329-1.346-1.482-.266-.104.731-.326.807-2.656.902-4.188.17-4.37-.308-4.37-11.489V.52l1.29-.242c.71-.133 2.887-.154 4.838-.047 3.159.175 3.707.307 5.002 1.211 2.029 1.416 2.767 2.979 2.604 5.515-.095 1.481-.341 2.26-.906 2.861-.426.454-.775.998-.775 1.207 0 .21.638 1.474 1.418 2.81.78 1.335 1.418 2.532 1.418 2.66 0 .191-5.13 2.794-5.507 2.794-.064 0-.458-.479-.874-1.064zm-3.19-4.257c0-2.76.023-2.838.851-2.838.718 0 1.062.447 2.183 2.838 1.43 3.05 2.01 3.416 3.619 2.288l.785-.55-1.327-2.45c-.964-1.781-1.23-2.584-.971-2.947l1.023-1.446c.371-.527.669-1.547.669-2.294 0-2.987-2.15-4.307-7.017-4.307h-3.006v14.544h3.19zm.236-5.203c-.13-.13-.237-1.013-.237-1.962 0-1.998.578-2.458 1.953-1.557 1.171.768 1.15 2.076-.05 3.02-.998.786-1.292.874-1.666.5zM6.138 18.585c-1.31-.541-1.53-1.506-1.53-6.722v-4.99H1.092L.545 5.035C.245 4.025 0 2.606 0 1.885 0 .821.153.53.798.356 1.236.24 4.888.141 8.913.138c6.35-.004 7.347.07 7.534.557.118.308.215 1.825.215 3.37v2.808h-5.018l.092 5.942.092 5.942-2.458.074c-1.351.04-2.806-.07-3.232-.246zm3.747-7.72L9.75 4.921l2.393-.104 2.393-.105V2.262H8.529c-3.428 0-6.095.145-6.215.338-.115.186-.109.738.014 1.225.2.797.424.897 2.226.992l2.004.105.098 5.661c.07 3.984.227 5.742.532 5.936.239.152.974.279 1.634.282l1.2.005zm30.1-1.242C39.898 4.5 39.868.255 39.919.186c.052-.068 1.899-.146 4.105-.173 3.903-.048 4.07-.018 6.163 1.115 3.83 2.072 5.327 4.903 5.034 9.515-.354 5.58-4.161 8.291-11.64 8.291h-3.438zm9.287 6.43c2.102-.926 3.053-1.868 3.763-3.728 1.231-3.226.014-7.025-2.813-8.782-1.432-.89-2.093-1.048-5.02-1.201l-3.37-.177v7.291c0 5.49.109 7.34.443 7.49.855.382 5.423-.2 6.997-.893zm-4.014-1.967c-.13-.13-.236-2.306-.236-4.835v-4.6l1.474.198c4.196.564 5.292 6.533 1.61 8.779-1.139.695-2.407.9-2.848.458zm2.884-3.027c.869-.869.248-3.476-.828-3.476-.393 0-.52.474-.52 1.951 0 1.99.415 2.459 1.348 1.525zm142.759 7.2c-3.341-1.552-4.416-3.675-4.416-8.725 0-4.05.533-5.645 2.512-7.516 1.547-1.464 2.72-1.884 5.258-1.884 2.026 0 6.535 1.139 6.91 1.745.104.17-.049.878-.34 1.575-.748 1.791-.687 2.71.18 2.71.672 0 .708.237.708 4.6v4.6l-1.238 1.238c-2.185 2.187-6.74 2.975-9.574 1.658zm7.273-2.112c1.745-.93 2.141-1.907 2.035-5.017l-.09-2.66-2.775.044c-1.525.024-2.93.2-3.121.392-.191.191-.242.77-.113 1.286.195.776.437.938 1.397.938.956 0 1.19.156 1.33.887.243 1.272-.429 1.97-2.114 2.196-1.271.17-1.59.07-2.342-.743-1.642-1.773-1.652-6.088-.018-7.852.816-.88 1.044-.936 3.388-.82 2.02.1 2.585.012 2.877-.448.646-1.021.026-1.608-2.195-2.08-3.812-.81-6.829.668-7.768 3.805-1.157 3.864-.099 8.284 2.377 9.93 1.582 1.052 5.287 1.126 7.132.143zm8.979-.671c.126-1.902.23-6.133.23-9.4l.003-5.942h12.762v6.385h-2.127v2.838c0 2.601.059 2.838.709 2.838.66 0 .709.236.709 3.37v3.37h-12.515zm10.45.124.112-1.383-2.683.203c-2.554.193-2.693.165-2.88-.582-.109-.431-.033-1.217.168-1.746.321-.845.555-.962 1.928-.962 1.423 0 1.58-.087 1.75-.975.103-.537.125-1.039.05-1.116-.077-.077-.943-.217-1.926-.312-.984-.094-1.881-.322-1.995-.506-.113-.183-.1-1.04.03-1.905l.235-1.57h2.755c1.516 0 2.84-.086 2.945-.19.104-.104.085-.703-.043-1.33-.28-1.382-.844-1.497-5.612-1.142l-3.279.244V16.77l1.861.137c1.024.076 2.898.124 4.166.108l2.304-.03z"
        style="stroke-width:1.00523" />
</svg>